<svg xmlns="http://www.w3.org/2000/svg" viewBox="0 0 640 400" role="img" aria-labelledby="t"><title id="t">Editing services placeholder</title><defs><linearGradient id="g" x1="0" y1="0" x2="1" y2="1"><stop offset="0" stop-color="#4a148c"/><stop offset="1" stop-color="#7e57c2"/></linearGradient></defs><rect width="640" height="400" fill="url(#g)"/><text x="320" y="56" text-anchor="middle" fill="#fff" font-family="Segoe UI,Arial,sans-serif" font-size="26" font-weight="700">Editing Services</text><rect x="60" y="120" width="520" height="48" rx="6" fill="#000" opacity="0.2"/><rect x="80" y="132" width="120" height="24" rx="4" fill="#ff7043"/><rect x="220" y="132" width="90" height="24" rx="4" fill="#fff" opacity="0.9"/><rect x="330" y="132" width="160" height="24" rx="4" fill="#fff" opacity="0.6"/><rect x="510" y="132" width="50" height="24" rx="4" fill="#fff" opacity="0.4"/><rect x="60" y="200" width="520" height="48" rx="6" fill="#000" opacity="0.2"/><rect x="80" y="212" width="200" height="24" rx="4" fill="#42a5f5"/><rect x="300" y="212" width="100" height="24" rx="4" fill="#fff" opacity="0.85"/><rect x="60" y="280" width="520" height="48" rx="6" fill="#000" opacity="0.2"/><rect x="80" y="292" width="80" height="24" rx="4" fill="#66bb6a"/><rect x="180" y="292" width="240" height="24" rx="4" fill="#fff" opacity="0.7"/><text x="320" y="370" text-anchor="middle" fill="#e1bee7" font-family="Segoe UI,Arial,sans-serif" font-size="16">Timeline &amp; post-production</text></svg>
